HIERARCHY
ROOT hips
{
  OFFSET 0 11.86390953 0.3628582958
  CHANNELS 6 Xposition Yposition Zposition Yrotation Xrotation Zrotation
  JOINT spine
  {
    OFFSET 0 0.05383551117999996 0
    CHANNELS 3 Yrotation Xrotation Zrotation
    JOINT chest
    {
      OFFSET 0 0.6394558760401424 0
      CHANNELS 3 Yrotation Xrotation Zrotation
      JOINT neck
      {
        OFFSET 0 2.720089088562982 0
        CHANNELS 3 Yrotation Xrotation Zrotation
        JOINT head
        {
          OFFSET 0 0.37880844870545777 0
          CHANNELS 3 Yrotation Xrotation Zrotation
          JOINT rightEye
          {
            OFFSET -0.42867780714 0.7547055649100001 0.7381831347
            CHANNELS 3 Yrotation Xrotation Zrotation
            End Site
            {
              OFFSET -0.42867780714 0.7547055649100001 0.7381831347
            }
          }
          JOINT leftEye
          {
            OFFSET 0.428676479 0.7547055559999993 0.7381844503
            CHANNELS 3 Yrotation Xrotation Zrotation
            End Site
            {
              OFFSET 0.428676479 0.7547055559999993 0.7381844503
            }
          }
          JOINT jaw
          {
            OFFSET -0.18933892286100001 1.5626303011000007 1.137441874206
            CHANNELS 3 Yrotation Xrotation Zrotation
            End Site
            {
              OFFSET -0.18933892286100001 1.5626303011000007 1.137441874206
            }
          }
        }
      }
      JOINT rightShoulder
      {
        OFFSET -0.6795351508 2.0665205 0
        CHANNELS 3 Yrotation Xrotation Zrotation
        JOINT rightUpperArm
        {
          OFFSET -0.7287400483531672 0 0
          CHANNELS 3 Yrotation Xrotation Zrotation
          JOINT rightLowerArm
          {
            OFFSET -1.9872982039174532 0 0
            CHANNELS 3 Yrotation Xrotation Zrotation
            JOINT rightHand
            {
              OFFSET -2.6451847532219275 0 0
              CHANNELS 3 Yrotation Xrotation Zrotation
              JOINT rightLittleProximal
              {
                OFFSET -0.8008804099999995 -0.09592044000000044 -0.26183688629999996
                CHANNELS 3 Yrotation Xrotation Zrotation
                JOINT rightLittleIntermediate
                {
                  OFFSET -0.2473955153999997 -0.02541697026000067 0.002370178700999967
                  CHANNELS 3 Yrotation Xrotation Zrotation
                  JOINT rightLittleDistal
                  {
                    OFFSET -0.163687229200001 -0.015790700860001117 -0.0004274845300000635
                    CHANNELS 3 Yrotation Xrotation Zrotation
                    End Site
                    {
                      OFFSET -0.163687229200001 -0.015790700860001117 -0.0004274845300000635
                    }
                  }
                }
              }
              JOINT rightRingProximal
              {
                OFFSET -0.8393382799999985 -0.06223833561000025 -0.09213143500000005
                CHANNELS 3 Yrotation Xrotation Zrotation
                JOINT rightRingIntermediate
                {
                  OFFSET -0.3284497260000011 -0.03264224524000103 0.009408593183000052
                  CHANNELS 3 Yrotation Xrotation Zrotation
                  JOINT rightRingDistal
                  {
                    OFFSET -0.19447660429999902 -0.021730899850000318 0.003074347969000052
                    CHANNELS 3 Yrotation Xrotation Zrotation
                    End Site
                    {
                      OFFSET -0.19447660429999902 -0.021730899850000318 0.003074347969000052
                    }
                  }
                }
              }
              JOINT rightMiddleProximal
              {
                OFFSET -0.8473005199999989 -0.06735503500000095 0.10541820299999995
                CHANNELS 3 Yrotation Xrotation Zrotation
                JOINT rightMiddleIntermediate
                {
                  OFFSET -0.3450455799999995 -0.02481901642000084 0.019012570390000032
                  CHANNELS 3 Yrotation Xrotation Zrotation
                  JOINT rightMiddleDistal
                  {
                    OFFSET -0.23542332000000088 -0.025003910029999243 0.0075583457949999905
                    CHANNELS 3 Yrotation Xrotation Zrotation
                    End Site
                    {
                      OFFSET -0.23542332000000088 -0.025003910029999243 0.0075583457949999905
                    }
                  }
                }
              }
              JOINT rightIndexProximal
              {
                OFFSET -0.8008568281999987 -0.09897839600000169 0.29462796
                CHANNELS 3 Yrotation Xrotation Zrotation
                JOINT rightIndexIntermediate
                {
                  OFFSET -0.30524754480000016 -0.024634122809999992 0.02743375304999998
                  CHANNELS 3 Yrotation Xrotation Zrotation
                  JOINT rightIndexDistal
                  {
                    OFFSET -0.23067378950000017 -0.016876459159999913 0.008484125099999983
                    CHANNELS 3 Yrotation Xrotation Zrotation
                    End Site
                    {
                      OFFSET -0.23067378950000017 -0.016876459159999913 0.008484125099999983
                    }
                  }
                }
              }
              JOINT rightThumbProximal
              {
                OFFSET -0.25574064999999935 -0.12833189930000155 0.22385698609999993
                CHANNELS 3 Yrotation Xrotation Zrotation
                JOINT rightThumbIntermediate
                {
                  OFFSET -0.22791743260000086 -0.07103586192999978 0.27385039
                  CHANNELS 3 Yrotation Xrotation Zrotation
                  JOINT rightThumbDistal
                  {
                    OFFSET -0.13610267659999975 -0.03369390969999997 0.14246511509999996
                    CHANNELS 3 Yrotation Xrotation Zrotation
                    End Site
                    {
                      OFFSET -0.13610267659999975 -0.03369390969999997 0.14246511509999996
                    }
                  }
                }
              }
            }
          }
        }
      }
      JOINT leftShoulder
      {
        OFFSET 0.6795338396 2.0665205 0
        CHANNELS 3 Yrotation Xrotation Zrotation
        JOINT leftUpperArm
        {
          OFFSET 0.7287383950230443 0 0
          CHANNELS 3 Yrotation Xrotation Zrotation
          JOINT leftLowerArm
          {
            OFFSET 1.9872997282019604 0 0
            CHANNELS 3 Yrotation Xrotation Zrotation
            JOINT leftHand
            {
              OFFSET 2.6451820781302327 0 0
              CHANNELS 3 Yrotation Xrotation Zrotation
              JOINT leftLittleProximal
              {
                OFFSET 0.8008804099999995 -0.09592306899999814 -0.2618342639000001
                CHANNELS 3 Yrotation Xrotation Zrotation
                JOINT leftLittleIntermediate
                {
                  OFFSET 0.2473981400000007 -0.02542352681000093 0.0023609995859999455
                  CHANNELS 3 Yrotation Xrotation Zrotation
                  JOINT leftLittleDistal
                  {
                    OFFSET 0.1636846068000002 -0.015794634789999318 -0.00043272972159996703
                    CHANNELS 3 Yrotation Xrotation Zrotation
                    End Site
                    {
                      OFFSET 0.1636846068000002 -0.015794634789999318 -0.00043272972159996703
                    }
                  }
                }
              }
              JOINT leftRingProximal
              {
                OFFSET 0.8393409199999996 -0.062242267999998324 -0.0921281570000001
                CHANNELS 3 Yrotation Xrotation Zrotation
                JOINT leftRingIntermediate
                {
                  OFFSET 0.3284471036000003 -0.03264224524000103 0.009405970574000042
                  CHANNELS 3 Yrotation Xrotation Zrotation
                  JOINT leftRingDistal
                  {
                    OFFSET 0.1944779099999996 -0.021732211159998904 0.003073036670000001
                    CHANNELS 3 Yrotation Xrotation Zrotation
                    End Site
                    {
                      OFFSET 0.1944779099999996 -0.021732211159998904 0.003073036670000001
                    }
                  }
                }
              }
              JOINT leftMiddleProximal
              {
                OFFSET 0.8473005200000001 -0.06736028199999788 0.1054214809999999
                CHANNELS 3 Yrotation Xrotation Zrotation
                JOINT leftMiddleIntermediate
                {
                  OFFSET 0.3450455799999995 -0.024824261000000014 0.019013225990000007
                  CHANNELS 3 Yrotation Xrotation Zrotation
                  JOINT leftMiddleDistal
                  {
                    OFFSET 0.2354259489999998 -0.025005222000000327 0.0075590014499999705
                    CHANNELS 3 Yrotation Xrotation Zrotation
                    End Site
                    {
                      OFFSET 0.2354259489999998 -0.025005222000000327 0.0075590014499999705
                    }
                  }
                }
              }
              JOINT leftIndexProximal
              {
                OFFSET 0.8008594516999996 -0.09898495199999946 0.29463124239999994
                CHANNELS 3 Yrotation Xrotation Zrotation
                JOINT leftIndexIntermediate
                {
                  OFFSET 0.30524754480000016 -0.024632811499998963 0.02743047472
                  CHANNELS 3 Yrotation Xrotation Zrotation
                  JOINT leftIndexDistal
                  {
                    OFFSET 0.23067378950000017 -0.016876459159999913 0.008481502700000004
                    CHANNELS 3 Yrotation Xrotation Zrotation
                    End Site
                    {
                      OFFSET 0.23067378950000017 -0.016876459159999913 0.008481502700000004
                    }
                  }
                }
              }
              JOINT leftThumbProximal
              {
                OFFSET 0.25574326469999953 -0.12833321050000013 0.22385764169999997
                CHANNELS 3 Yrotation Xrotation Zrotation
                JOINT leftThumbIntermediate
                {
                  OFFSET 0.22804987480000094 -0.07138466829999968 0.273648441
                  CHANNELS 3 Yrotation Xrotation Zrotation
                  JOINT leftThumbDistal
                  {
                    OFFSET 0.13614857189999907 -0.033867001519998885 0.14238119169999996
                    CHANNELS 3 Yrotation Xrotation Zrotation
                    End Site
                    {
                      OFFSET 0.13614857189999907 -0.033867001519998885 0.14238119169999996
                    }
                  }
                }
              }
            }
          }
        }
      }
    }
  }
  JOINT rightUpperLeg
  {
    OFFSET -0.9749898906000001 -1.8495733739999998 0
    CHANNELS 3 Yrotation Xrotation Zrotation
    JOINT rightLowerLeg
    {
      OFFSET 0 -4.1566544686813165 0
      CHANNELS 3 Yrotation Xrotation Zrotation
      JOINT rightFoot
      {
        OFFSET 0.14539718599999998 -4.225553926 -0.3666210900000001
        CHANNELS 3 Yrotation Xrotation Zrotation
        JOINT rightToes
        {
          OFFSET 0.1706738473 -0.9584117400000015 1.0093348617
          CHANNELS 3 Yrotation Xrotation Zrotation
          End Site
          {
            OFFSET 0.1706738473 -0.9584117400000015 1.0093348617
          }
        }
      }
    }
  }
  JOINT leftUpperLeg
  {
    OFFSET 0.9749898906000001 -1.8495733739999998 0
    CHANNELS 3 Yrotation Xrotation Zrotation
    JOINT leftLowerLeg
    {
      OFFSET 0 -4.156653488267941 0
      CHANNELS 3 Yrotation Xrotation Zrotation
      JOINT leftFoot
      {
        OFFSET -0.14537357999999995 -4.225555399999999 -0.36661124279999996
        CHANNELS 3 Yrotation Xrotation Zrotation
        JOINT leftToes
        {
          OFFSET -0.17066467000000002 -0.9584157000000019 1.0093348617
          CHANNELS 3 Yrotation Xrotation Zrotation
          End Site
          {
            OFFSET -0.17066467000000002 -0.9584157000000019 1.0093348617
          }
        }
      }
    }
  }
}
MOTION
Frames: 4
Frame Time: 0.03333333333333333
0.10778534412384033 -0.12933998043945394 0.24907547235488892 -5.661728326371855 -6.3145557621466635 -3.687824474196628 1.4596174188497932 2.792297212213768 2.836657522596401 0.4396211170947069 0.492522522363369 3.1089277696135706 -1.3015135089910608 4.508092482234816 4.9028597363599955 -6.777901432463324 -10.396724257593341 12.59429290448116 0 0 0 0 0 0 0 0 0 14.586517116859529 1.6699426532252233 10.982012395083542 28.449912151135607 9.345999474833521 67.13230109659803 5.694634848257265 0.003651833763263545 -0.07344394463846539 -0.14023147495698707 -18.88165287668148 7.717342624928355 -4.621084606205552 0.7142978082761526 25.74324911885531 -1.0730498706153577 0.12993556241220836 17.2404570061399 -1.1648110542154053 0.1304967466111539 16.340691754445235 -2.3786971787452744 -0.2079523426659817 21.62080036549339 -1.465055189991904 0.2766250167214612 21.532548301585873 -1.2566614832182812 0.2091735672361117 18.496188758160375 -2.0932842430924516 -0.16981437277080125 16.329643463780705 -1.1978246143254065 0.20598235384624394 19.238294583254195 -1.3951379143668161 0.24148341374001492 20.249265016205563 0.6207521975548812 0.6124011385387206 5.7921348931841194 -1.1350755650715882 0.17350303832364317 17.25455317777782 -0.5490479976404574 0.037125846012161956 7.895347661845626 -1.1559230302291688 -2.261945965187192 -5.284783052915881 -29.67576429678075 11.013828603860567 -21.32657066050653 -2.5988852868323353 -14.993409719402662 -10.817259478665337 -16.385309584079245 1.8360757029967065 -6.49228748849543 -19.306755376037838 0.11818490141032095 -76.60887409091389 -0.46673883802107413 0.00002107080816124147 0.00602529571032469 -6.350538188621573 -34.03690861986449 0.610668243595944 5.564402743316134 0.9968505527006112 -25.78837211408729 1.1654519475047043 0.190280135258992 -13.486779472227315 1.100566607138681 0.16624494324912611 -12.54349321809163 4.022515347747095 0.33748725466906515 -16.46198565937748 0.4834790193128934 0.022923672936040508 -5.413599937582222 0.19681362222240809 0.0038066548587923498 -2.2010167794141626 3.350780419403972 0.15891451992795436 -13.045510212233445 1.4942862736133524 0.22158960487537074 -16.92267902229629 1.5811538807336916 0.2495919366042027 -17.941536925540674 -0.6162964813716013 1.829620219403325 -3.7161059559334144 1.5396994616795887 0.23517322484849787 -17.346089181090967 0.7052978972194887 0.04973670006561154 -7.996118476308373 5.124155492295553 2.228351290318644 4.831483302326666 24.953136637416122 10.267305859237124 22.45895830039189 3.488655312876864 -14.341849448167324 8.597732655937206 -10.438620764041461 2.713425932010226 2.5126540511029387 -9.409245720253292 10.727470362836861 -4.943275942621092 -1.6169664438707816 -5.673078164844922 4.381514783363822 0.000004238076302990032 -7.309099484034948 -0.000001771869030221872 15.772301593128672 -8.839680746378354 8.279172382933488 1.8719631385300397 16.823460749252607 4.695411054934025 0.46852703458003675 -1.893134368541384 -7.333089940419363 0.000004799371615997664 -5.016837193215268 -9.127973300150819e-7
0.10485353320837021 -0.12896232541015706 0.2371300905942917 -5.636448879725909 -6.20497711653512 -3.704842203313553 1.4507442920436264 2.80782711325838 2.8229936471084778 0.4066658272167418 0.5499618833876108 3.058397432420827 -1.2848756148352063 4.510969213499931 4.784435023742495 -6.554692596852238 -9.572422093235279 12.436313845516807 0 0 0 0 0 0 0 0 0 14.589014096603387 1.655826391325676 11.097705797208649 28.34465052022586 9.541005196932117 67.27299784267319 5.447750787924903 0.003363821477417424 -0.07027998438624453 -0.6578172846008217 -18.60594112749706 8.128384232823105 -4.648398578088369 0.7243033831440012 25.38655399173751 -1.0717760261967075 0.129598427678962 17.221312850282885 -1.1635378514813834 0.13014913977601344 16.321515660625202 -2.3845832919337027 -0.19497870497357925 21.22103465792396 -1.4585764992210173 0.2740561689205008 21.43068916329363 -1.2499760164073739 0.20691470740079956 18.39328038434632 -2.099407105699496 -0.15688094344227155 15.862141925330686 -1.1917434333958148 0.20393600540564563 19.14450035413256 -1.3891150931620933 0.2392784705322269 20.15558242607155 0.6416386404054374 0.6289956834084747 5.45657195262433 -1.1373040076913548 0.17417701567827962 17.2885273669037 -0.5513630953840226 0.0374556895240609 7.929356297488176 -1.1637872790191548 -2.298910128024787 -5.322076649404531 -29.680159651549697 11.02304856784821 -21.300734927788078 -2.5828694004843964 -14.977582063102883 -10.784049234548833 -16.51402727102077 1.808160264808721 -6.704314684449748 -19.326366300660514 0.17182092317980224 -76.39890232271948 -0.400189501184337 0.000012436638502116177 0.005173234205217036 -6.148871245195374 -33.84274864992105 0.45386798727110106 5.569009657836548 0.998426644322293 -25.756622470320746 1.156492885679948 0.18774181237619877 -13.382809776387113 1.0914631182425003 0.16385276628858106 -12.438344032030273 3.946702176989945 0.31563370933261337 -16.709431800951595 0.5519840598310782 0.029898690876259307 -6.183540062390124 0.2666461633061866 0.0069767481047714386 -2.982539568601502 3.1958467508445447 0.12188469760562053 -13.244421834976068 1.4971662893443827 0.22246534308784027 -16.95635161517239 1.583660328303448 0.25040633769348564 -17.971010508124323 -0.7063380646472062 1.5258537966166634 -4.429790338202407 1.5406406307939402 0.23547036726400497 -17.35702943799905 0.7063905998011278 0.04988942555441098 -8.008448067854301 4.8582025200749355 1.8379919155683846 4.8754267108512455 24.97607062465105 10.293523525981945 22.374837739908177 3.442814642898389 -14.301462451265536 8.554475743026119 -10.420826994466543 2.6191047682815394 2.6054903160638236 -9.454785168493366 10.586997246466328 -4.94812346932741 -1.6189571138881713 -5.63625586995854 4.292412255595458 0.00001819503467493212 -7.290151798854576 -0.0000038049947696342265 15.732032883693186 -8.959777289896437 8.264390210508605 1.8710936271785 16.697475617976494 4.689718679024666 0.4689351946513363 -1.7933171233532146 -7.311606000326983 -0.000006074024051060819 -5.022980606677267 0.0000011054866884656301
0.10306622087955475 -0.1287219994824227 0.2310880422592163 -5.634859130452906 -6.16292096855562 -3.711507248220638 1.4470121067961403 2.8134803459008797 2.8163481309820826 0.39397741329612795 0.5689737676074597 3.0329866557945606 -1.2724380596739904 4.5796848719274 4.7215476046887455 -6.410000671264562 -9.007891997723313 12.325117691290268 0 0 0 0 0 0 0 0 0 14.595964836355714 1.6465913424515173 11.16889515813868 28.298974081227406 9.647437187274033 67.3173346433347 5.346940040447499 0.0032162651702772067 -0.0689729337814497 -0.8935935227702612 -18.483888099129246 8.330861467311774 -4.651213766953108 0.7240604117732987 25.291014713977017 -1.0722764429440708 0.12972520004983576 17.228649522283366 -1.1640251449293273 0.13028707793698344 16.32886100804469 -2.3853160520473993 -0.19142550564018015 21.09572964505455 -1.4559981503695534 0.27303765871348135 21.390123912442263 -1.2473329644015336 0.20601903966972182 18.352446195843168 -2.1007615746397583 -0.1532275125693798 15.721765039209684 -1.1891094209600312 0.20307335507622754 19.10389053058295 -1.386505156036586 0.23830921558231857 20.114988808570537 0.6474207502822082 0.6341409960734432 5.357401125188328 -1.1385197018861404 0.17454518058757057 17.30707969695534 -0.5526238722478056 0.037629692632584616 7.947917801024565 -1.1659667526078203 -2.3153709938999034 -5.335953332279585 -29.683570682888835 11.028042255777784 -21.28642544968622 -2.5753336000275433 -14.97139025729419 -10.77192805012214 -16.557677180087104 1.7936880562732187 -6.8104926528501135 -19.33146304078671 0.20949166674346104 -76.29114810128472 -0.3662097892788245 0.000014975838657617014 0.00472663388533697 -6.0183538965153245 -33.771722961980096 0.31725134846818787 5.571179164012468 0.9991848037941864 -25.741862000637756 1.1522555471245886 0.18656709361323132 -13.33362522811261 1.087147605440042 0.1627119599821169 -12.388596364792592 3.904242007149064 0.30309169834455213 -16.8569922276907 0.5888304607819478 0.034015798148134775 -6.598058623577022 0.3041307404772582 0.009076424315569613 -3.4023157884115913 3.107040633738416 0.09983874656153638 -13.39850679807334 1.49887037248982 0.22299089809889514 -16.976201159979286 1.5851706783234516 0.2508994500536745 -17.988785548351558 -0.7498164870767027 1.3586951860185101 -4.845716184317281 1.5411625614276103 0.23564824717043673 -17.363021521066845 0.7069870419208096 0.04997466621421968 -8.01521916103249 4.711052558037251 1.5890326970800175 4.9209038223510255 24.992823197181327 10.312114529549607 22.312753617213126 3.4109850545504834 -14.274614059044684 8.527926804361798 -10.414956961812218 2.5886805067322243 2.6474832660398246 -9.465719196244223 10.510195823381029 -4.944530798981337 -1.6201784331794205 -5.617474989079143 4.247160956113823 0.0000071970467322432335 -7.283994167524796 -9.664777954417523e-7 15.71320179441706 -9.003113433130622 8.262629139661405 1.8802829705607944 16.629838883711813 4.68966354386891 0.46902134572201887 -1.7436163093371353 -7.301890733807035 -0.0000010219633165426729 -5.027263803423644 -3.242946562924129e-7
0.09894926100969315 -0.1281297677319344 0.2187560498714447 -5.654673165914577 -6.098208364823548 -3.7212994302090125 1.4430356510404447 2.823011663350177 2.8048006000281616 0.37224722274007754 0.5951815956132106 2.986696967689932 -1.234139051922278 4.848645331769197 4.577779552922958 -6.06871322011939 -7.781400565272014 12.008107986380018 0 0 0 0 0 0 0 0 0 14.60350209658783 1.6191999116714273 11.34950720017723 28.22072789760278 9.86274305056005 67.35589851664274 5.1972377659986835 0.003049982747261119 -0.06705057036930398 -1.2168895118535816 -18.33525338270979 8.636805279375428 -4.637868003799448 0.7156369497786969 25.258401950891862 -1.0752960588740688 0.13053057747965735 17.274283843591594 -1.1670414145082872 0.1310858519619529 16.374456388247292 -2.384815105516993 -0.18879302685316282 20.98615506360446 -1.4521746069885932 0.27154215056241804 21.330238382172592 -1.2434191957302694 0.2046963356925607 18.292255886264357 -2.1006967822677405 -0.15074607743692156 15.613958759951176 -1.1846056827435494 0.20155292147604761 19.034680067338698 -1.382055319335802 0.23669298150404502 20.04584663553968 0.6506927297021209 0.6385526632327366 5.285642017373646 -1.1403164418223566 0.175096067256922 17.334630709598997 -0.5544862444572429 0.03788812596936051 7.975435472634916 -1.1687586500347396 -2.3426511064128217 -5.352622047915107 -29.69207674422584 11.03995316592405 -21.252258653603764 -2.559519602569366 -14.962755965273253 -10.759844843512305 -16.59979266338446 1.7625343292711275 -7.032094652263414 -19.328344083498244 0.31314225360426295 -76.06881083220131 -0.3227453239568388 0.0000050312348732970544 0.004174010136464077 -5.737022963631 -33.736562780313186 -0.06342858239796567 5.575405188283088 1.0006623773745844 -25.714630859391587 1.1442871516123814 0.1843338101593605 -13.241204678039622 1.079048476442197 0.16060829336477117 -12.295109337836665 3.8221147421977655 0.27799635334199 -17.161482030690077 0.6634653509238196 0.04321206632955142 -7.438726482165593 0.3801868753338797 0.01417640961512982 -4.254615462361703 2.9370121945480876 0.055210655421036356 -13.772548047346076 1.5021013335717797 0.2239667154384794 -17.01400013316178 1.5880911099710644 0.25184746809002023 -18.023118883693577 -0.817862072066287 1.0536820250653716 -5.646746115845867 1.5422211600184765 0.23596475974992537 -17.375431277982898 0.7081981433022795 0.050150083414952064 -8.02893329151133 4.432722847161843 1.0583405784199653 5.047283810641196 25.030932722379507 10.354243392414967 22.1703452834816 3.340830626139195 -14.217312242373561 8.47450089893702 -10.402923978607324 2.556601994549675 2.726229174948149 -9.468601889707521 10.335700234298326 -4.93175162216574 -1.6230458112989918 -5.575529787832165 4.1605101318966655 -0.00000326552366400195 -7.279680260938421 -0.0000033172083712359475 15.679671062132757 -9.063138805992745 8.266897486718033 1.9199848510535853 16.48516300276638 4.694968028294078 0.4689749019805927 -1.644342962914381 -7.283584278390504 7.876907161578124e-7 -5.032661657070866 -0.0000029463877096346336
